<svg width="53" height="41" viewBox="0 0 53 41" fill="none" xmlns="http://www.w3.org/2000/svg">
<path d="M50.2513 6.95923H47.5747V8.63904H50.2513C50.7038 8.63904 50.8744 9.12865 50.8744 9.58111V31.7417C50.8744 34.0044 49.231 35.696 46.9683 35.696H30.553C29.1952 35.696 27.8969 36.9501 27.8969 38.3078V38.5757H24.5972V38.3078C24.5972 36.9501 23.7031 35.696 22.3453 35.696H5.93004C3.66733 35.696 1.61982 34.0044 1.61982 31.7417V9.58111C1.61982 9.12865 2.19455 8.63904 2.64702 8.63904H4.91945V6.95923H2.64702C1.28926 6.95923 0 8.22329 0 9.58111V31.7417C0 34.9098 2.76203 37.3158 5.93004 37.3158H22.3453C22.7978 37.3158 22.9774 37.8553 22.9774 38.3078V38.7182C22.9774 39.6235 23.9023 40.1954 24.8076 40.1954H28.0907C28.996 40.1954 29.5168 39.6235 29.5168 38.7182V38.3078C29.5168 37.8553 30.1005 37.3158 30.553 37.3158H46.9683C50.1363 37.3158 52.4941 34.9097 52.4941 31.7417V9.58111C52.4941 8.22335 51.6091 6.95923 50.2513 6.95923Z" fill="#E07A5F"/>
<path d="M12.2986 6.95923H22.1375V8.63904H12.2986V6.95923ZM12.2986 10.6788H22.1375V12.2986H12.2986V10.6788ZM12.2986 14.3384H22.1375V16.0182H12.2986V14.3384ZM30.3566 6.95923H40.1955V8.63904H30.3566V6.95923ZM30.3566 10.6788H40.1955V12.2986H30.3566V10.6788ZM30.3566 14.3384H40.1955V16.0182H30.3566V14.3384Z" fill="#E07A5F"/>
<path d="M45.7371 3.71958H44.695V3.42538C44.695 1.61514 43.4436 -5.85937e-08 41.6333 0H31.7841C29.5032 0 27.5126 1.24978 26.4492 3.09769C25.3857 1.24978 23.3951 0 21.1142 0H11.265C9.45481 0 7.79917 1.61508 7.79917 3.42538V3.71958H7.16126C5.57744 3.71958 4.07959 5.30857 4.07959 7.1188V29.2794C4.07959 31.5421 6.03753 33.2363 8.18721 33.2363H23.1662C24.5239 33.2363 25.6285 34.4361 25.6285 35.696H27.27C27.27 34.4361 28.3745 33.2363 29.7323 33.2363H44.7112C46.8609 33.2363 48.4147 31.5421 48.4147 29.2794V7.1188C48.4146 5.30857 47.3209 3.71958 45.7371 3.71958ZM31.7841 1.61982H41.6333C42.5386 1.61982 43.0752 2.52002 43.0752 3.42538V26.8171C43.0752 27.7224 42.5386 28.3168 41.6333 28.3168H31.7841C29.9997 28.3168 28.3168 29.2264 27.057 30.4434V6.29803C27.057 3.80891 29.2949 1.61982 31.7841 1.61982ZM9.41893 3.42538C9.41893 2.52008 10.3597 1.61982 11.265 1.61982H21.1141C23.6033 1.61982 25.4371 3.80885 25.4371 6.29803V30.4336C24.5972 29.2197 22.8959 28.3168 21.1141 28.3168H11.265C10.3597 28.3168 9.41899 27.7225 9.41899 26.8171V3.42538H9.41893ZM8.18715 31.6165C6.94277 31.6165 5.69935 30.6372 5.69935 29.2794V7.1188C5.69935 6.2291 6.4939 5.3394 7.1612 5.3394H7.79911V26.8171C7.79911 28.6274 9.45475 29.9366 11.265 29.9366H21.1141C22.6806 29.9366 24.0621 30.7585 24.8719 31.9734C24.3516 31.7343 23.7751 31.6165 23.166 31.6165H8.18715ZM46.7348 29.2794C46.7348 30.6372 45.9555 31.6165 44.7111 31.6165H29.7322C29.1231 31.6165 28.5466 31.7343 28.0263 31.9734C28.8361 30.7585 30.2176 29.9366 31.7841 29.9366H41.6332C43.4435 29.9366 44.6949 28.6274 44.6949 26.8171V5.3394H45.737C46.4042 5.3394 46.7347 6.2291 46.7347 7.1188V29.2794H46.7348Z" fill="#2B2D42"/>
<path d="M22.1375 22.1567C22.1375 22.61 21.7701 22.9775 21.3168 22.9775H13.1194C12.6661 22.9775 12.2986 22.61 12.2986 22.1567V18.8788C12.2986 18.4255 12.6661 18.058 13.1194 18.058H21.3168C21.7701 18.058 22.1375 18.4255 22.1375 18.8788V22.1567ZM40.1955 22.1567C40.1955 22.61 39.8281 22.9775 39.3748 22.9775H31.1774C30.7241 22.9775 30.3566 22.61 30.3566 22.1567V18.8788C30.3566 18.4255 30.7241 18.058 31.1774 18.058H39.3748C39.8281 18.058 40.1955 18.4255 40.1955 18.8788V22.1567Z" fill="#FDFBF7"/>
</svg>
